<svg width="19" height="23" viewBox="0 0 19 23" fill="none" xmlns="http://www.w3.org/2000/svg">
<path d="M9.27367 11.3333C9.91124 11.3333 10.4572 11.121 10.9116 10.6963C11.366 10.2717 11.5929 9.76178 11.5921 9.16667C11.5921 8.57083 11.3649 8.06058 10.9105 7.63592C10.4561 7.21125 9.91046 6.99928 9.27367 7C8.63611 7 8.09012 7.21233 7.63571 7.637C7.1813 8.06167 6.95448 8.57156 6.95525 9.16667C6.95525 9.7625 7.18246 10.2728 7.63687 10.6974C8.09128 11.1221 8.63688 11.3341 9.27367 11.3333ZM9.27367 22.1667C6.16313 19.6931 3.84007 17.3957 2.30451 15.2745C0.768942 13.1533 0.000772806 11.1896 0 9.38333C0 6.675 0.932391 4.51736 2.79717 2.91042C4.66195 1.30347 6.82079 0.5 9.27367 0.5C11.7273 0.5 13.8865 1.30347 15.7513 2.91042C17.6161 4.51736 18.5481 6.675 18.5473 9.38333C18.5473 11.1889 17.7792 13.1526 16.2428 15.2745C14.7065 17.3964 12.3834 19.6938 9.27367 22.1667Z" fill="url(#paint0_linear_82_787)"/>
<defs>
<linearGradient id="paint0_linear_82_787" x1="-4.45866e-07" y1="11.5" x2="19.7957" y2="11.5" gradientUnits="userSpaceOnUse">
<stop stop-color="#D5D765"/>
<stop offset="1" stop-color="#58B96D"/>
</linearGradient>
</defs>
</svg>
