<svg width="52" height="52" viewBox="0 0 52 52" fill="none" xmlns="http://www.w3.org/2000/svg">
<g clip-path="url(#clip0_30_534)">
<rect width="52" height="52" rx="26" fill="#FFDBD1" fill-opacity="0.4"/>
<path d="M36.6076 47.4003C30.5495 44.9626 28.5531 41.9352 29.0703 37.5735H22.4156C22.9328 41.9352 20.9364 44.9626 14.8783 47.4003C8.82018 49.838 8.00644 52.4999 8.00644 52.4999H43.5036C43.5036 52.4999 42.6726 49.838 36.6076 47.4003Z" fill="#FF8482"/>
<path d="M25.702 44.6761C27.4007 44.6772 29.0733 44.2579 30.5706 43.4555C29.2293 41.7935 28.8052 39.8696 29.0776 37.5939H22.4161C22.6885 39.9006 22.2575 41.8349 20.8955 43.5072C22.3792 44.2807 24.0288 44.6819 25.702 44.6761Z" fill="#FF5B59"/>
<path d="M36.6081 47.4008C34.8366 46.7443 33.1822 45.8072 31.7085 44.6251L26.1261 49.7972L19.8335 44.5527C18.6371 45.5871 17.0096 46.5284 14.8719 47.387C8.81373 49.8247 8 52.4866 8 52.4866H43.5041C43.5041 52.4866 42.6731 49.8385 36.6081 47.4008Z" fill="#6F87ED"/>
<path d="M17.1374 29.6648C18.2512 31.7991 17.7857 34.2472 16.103 35.1333C14.4204 36.0194 12.1309 35.0057 11.0138 32.8714C9.89664 30.7371 10.3656 28.2856 12.0482 27.3994C13.7308 26.5133 16.0203 27.5201 17.1374 29.6648Z" fill="#FF8482"/>
<path d="M16.1545 33.7338C16.1545 33.6476 16.1338 33.5717 16.1234 33.489C16.1349 33.5389 16.143 33.5896 16.1476 33.6407C16.1491 33.2765 16.0873 32.9148 15.9648 32.5718C15.7373 31.5558 15.2085 30.6322 14.4475 29.9216C13.6865 29.2111 12.7288 28.7467 11.6996 28.5894C13.0551 29.3762 14.2298 30.4394 15.1476 31.7098C13.934 31.2167 12.0444 32.2649 12.0444 32.2649C14.2719 31.6719 15.2856 32.1615 15.751 32.7304C15.9237 33.0482 16.059 33.3849 16.1545 33.7338Z" fill="#FF5B59"/>
<path d="M34.2667 29.6648C33.1496 31.7991 33.6185 34.2472 35.3011 35.1333C36.9837 36.0194 39.2732 35.0057 40.3904 32.8714C41.5075 30.7371 41.0386 28.2856 39.356 27.3994C37.6734 26.5133 35.3839 27.5201 34.2667 29.6648Z" fill="#FF8482"/>
<path d="M35.2458 33.7338C35.2458 33.6476 35.27 33.5717 35.2769 33.489C35.2769 33.551 35.2562 33.5993 35.2528 33.6407C35.2521 33.2763 35.3151 32.9145 35.4389 32.5718C35.6669 31.5548 36.1967 30.6305 36.9591 29.9199C37.7214 29.2092 38.6806 28.7455 39.711 28.5894C38.3556 29.3762 37.1808 30.4394 36.263 31.7098C37.4802 31.2167 39.3662 32.2649 39.3662 32.2649C37.1354 31.6719 36.1216 32.1615 35.6562 32.7304C35.4831 33.0488 35.3455 33.3853 35.2458 33.7338Z" fill="#FF5B59"/>
<path d="M38.9868 20.593C40.366 17.5829 42.0417 12.2626 35.2388 9.16286C35.2871 9.18699 32.3287 6.69409 27.0705 11.2317C25.3948 12.704 23.1467 13.3487 21.0158 12.6453C18.8849 11.9419 16.0921 12.0143 14.5405 15.8727C14.1602 16.7473 13.9935 17.6999 14.0543 18.6517C13.5612 18.0346 12.8889 17.6173 12.2613 18.6173C11.7545 19.4 12.1717 22.8652 13.3992 25.9994C13.3992 25.9994 14.1129 33.5299 17.5368 34.7022L20.9158 30.0681C23.719 30.0026 27.2084 29.9095 30.0806 29.8474L33.6217 34.7022C36.0732 33.8643 37.1387 29.7888 37.549 27.5235L37.9489 27.0787C39.5281 25.334 40.1281 22.9135 39.1592 20.9136C39.1006 20.7999 39.0454 20.6999 38.9868 20.593Z" fill="#420E2F"/>
<path d="M21.0158 12.6372C18.8918 11.9303 16.0921 12.0131 14.5232 15.868C14.3673 16.2464 14.2438 16.6374 14.1543 17.0368L14.2439 17.2506C14.2439 17.2506 16.3196 12.3958 21.0158 12.6372Z" fill="#7C1A59"/>
<path d="M35.2285 9.16202C35.2665 9.16202 33.4804 7.67248 30.2048 9.16202C30.8461 9.16202 39.0282 9.24477 40.0833 17.2648C40.5867 14.4926 39.9282 11.2998 35.2285 9.16202Z" fill="#7C1A59"/>
<path d="M22.5812 17.506C20.6958 17.5059 18.8866 18.2496 17.5463 19.5756C16.2061 20.9016 15.4431 22.7029 15.4231 24.5882L15.3507 31.4118C15.3507 37.6492 19.9849 42.7108 25.6947 42.7108C31.4046 42.7108 36.0387 37.6492 36.0387 31.4118L36.0181 24.1709C36.0181 20.4885 33.6424 15.4061 29.9565 15.4061L22.5812 17.506Z" fill="#FDB193"/>
<path opacity="0.39" d="M26.5184 37.8589C26.5184 37.8589 28.3734 37.9141 29.0354 36.4384C29.0354 36.4384 29.563 37.5141 28.2975 38.1624C27.0321 38.8106 26.5184 37.8589 26.5184 37.8589Z" fill="#FF8282"/>
<g style="mix-blend-mode:multiply" opacity="0.55">
<path d="M36.0286 24.171C36.0286 20.4885 33.6529 15.4061 29.967 15.4061L22.5814 17.506C20.6961 17.5059 18.8868 18.2496 17.5465 19.5756C16.2063 20.9016 15.4433 22.7029 15.4234 24.5882L15.3889 27.8189L16.4233 26.0432C16.4233 26.0122 17.1405 22.971 23.6951 22.8883C25.9846 22.8573 28.7706 22.1987 30.5911 19.561C31.2428 21.5194 32.3324 23.2814 33.6288 24.3399C34.3172 24.9223 35.1519 25.3051 36.0424 25.4467L36.0286 24.171Z" fill="#FDB193"/>
</g>
<path d="M28.8495 33.379C28.9735 33.717 29.0365 34.0742 29.0357 34.4341C29.0523 35.1696 28.7917 35.8844 28.3056 36.4367C27.8195 36.9889 27.1435 37.3381 26.4118 37.4149C25.6802 37.4918 24.9464 37.2907 24.3562 36.8515C23.7659 36.4124 23.3624 35.7673 23.2258 35.0444L28.8495 33.379Z" fill="#230F0B"/>
<path d="M26.1019 37.4443C25.6205 37.4474 25.1461 37.3287 24.7227 37.0995C24.8812 36.4341 25.263 35.8431 25.8045 35.4252C26.346 35.0072 27.0145 34.7877 27.6984 34.8031C28.1388 34.8036 28.5743 34.8952 28.9776 35.0721C28.8437 35.7377 28.4848 36.3368 27.961 36.7689C27.4373 37.2009 26.7808 37.4394 26.1019 37.4443Z" fill="#E8132C"/>
<path d="M27.1772 31.581C27.1772 32.5602 26.5152 33.3533 25.7015 33.3533C24.8877 33.3533 24.2223 32.5602 24.2223 31.581C24.2223 30.6018 24.8843 29.3743 25.7015 29.3743C26.5186 29.3743 27.1772 30.6018 27.1772 31.581Z" fill="#FF6A68"/>
<path d="M31.0244 28.434C31.0244 29.2442 30.752 29.9028 30.4107 29.9028C30.0693 29.9028 29.7969 29.2442 29.7969 28.434C29.7969 27.6237 30.0728 26.9617 30.4107 26.9617C30.7486 26.9617 31.0244 27.6202 31.0244 28.434Z" fill="#25110D"/>
<path d="M33.3039 26.8233C33.3832 26.7785 29.98 24.627 27.8802 24.7063C27.856 24.7407 27.9216 22.8271 30.7075 23.8305C33.4108 24.9407 33.2797 26.8544 33.3039 26.8233Z" fill="#420E2F"/>
<path d="M20.9873 29.9016C21.3263 29.9016 21.6011 29.2439 21.6011 28.4327C21.6011 27.6215 21.3263 26.9639 20.9873 26.9639C20.6483 26.9639 20.3736 27.6215 20.3736 28.4327C20.3736 29.2439 20.6483 29.9016 20.9873 29.9016Z" fill="#25110D"/>
<path d="M17.7844 26.8233C17.7051 26.7785 21.1083 24.627 23.2082 24.7063C23.2357 24.7407 23.1668 22.8271 20.3808 23.8305C17.681 24.9407 17.8086 26.8544 17.7844 26.8233Z" fill="#420E2F"/>
<path d="M19.5151 33.4227C19.4748 33.423 19.4349 33.4148 19.3979 33.3986C19.3329 33.3666 19.2831 33.3104 19.2592 33.242C19.2354 33.1736 19.2394 33.0986 19.2703 33.0331L20.1289 31.2574C20.1621 31.1954 20.2181 31.1486 20.285 31.1269C20.352 31.1052 20.4247 31.1103 20.488 31.141C20.5513 31.1718 20.6003 31.2259 20.6246 31.2919C20.6489 31.358 20.6467 31.4308 20.6185 31.4953L19.76 33.271C19.7377 33.3169 19.7029 33.3556 19.6596 33.3824C19.6162 33.4093 19.5661 33.4233 19.5151 33.4227Z" fill="#FF6A68"/>
<path d="M17.8017 33.4227C17.7554 33.4235 17.7098 33.4123 17.6691 33.3903C17.6284 33.3683 17.5941 33.3361 17.5695 33.2969C17.5449 33.2578 17.5308 33.2129 17.5286 33.1667C17.5264 33.1205 17.5361 33.0745 17.5569 33.0331L18.4155 31.2574C18.4487 31.1954 18.5047 31.1486 18.5716 31.1269C18.6386 31.1052 18.7113 31.1103 18.7746 31.141C18.8379 31.1718 18.8868 31.2259 18.9112 31.2919C18.9355 31.358 18.9333 31.4308 18.9051 31.4953L18.0465 33.271C18.024 33.3167 17.9891 33.3551 17.9458 33.3819C17.9025 33.4087 17.8526 33.4229 17.8017 33.4227Z" fill="#FF6A68"/>
<path d="M31.7213 33.4241C31.6704 33.4242 31.6205 33.4101 31.5772 33.3832C31.534 33.3564 31.4991 33.318 31.4765 33.2724L30.618 31.4967C30.5897 31.4322 30.5876 31.3593 30.6119 31.2933C30.6362 31.2272 30.6851 31.1731 30.7484 31.1424C30.8117 31.1116 30.8845 31.1066 30.9514 31.1283C31.0184 31.1499 31.0743 31.1967 31.1076 31.2587L31.9661 33.0345C31.9971 33.0999 32.0011 33.175 31.9772 33.2433C31.9534 33.3117 31.9036 33.368 31.8386 33.3999C31.8016 33.4162 31.7617 33.4244 31.7213 33.4241Z" fill="#FF6A68"/>
<path d="M33.4349 33.4242C33.384 33.4243 33.3341 33.4102 33.2908 33.3834C33.2475 33.3566 33.2126 33.3182 33.1901 33.2725L32.335 31.4968C32.3191 31.4649 32.3098 31.4302 32.3074 31.3947C32.3051 31.3591 32.3098 31.3235 32.3214 31.2898C32.3329 31.2562 32.3511 31.2251 32.3747 31.1985C32.3983 31.1719 32.427 31.1502 32.4591 31.1348C32.4912 31.1188 32.5262 31.1094 32.562 31.107C32.5978 31.1047 32.6337 31.1094 32.6676 31.1209C32.7016 31.1324 32.7329 31.1506 32.7599 31.1743C32.7868 31.1979 32.8088 31.2267 32.8246 31.2589L33.6797 33.0346C33.7109 33.0997 33.7154 33.1743 33.6922 33.2427C33.669 33.311 33.6199 33.3675 33.5556 33.4001C33.5175 33.4167 33.4764 33.4249 33.4349 33.4242Z" fill="#FF6A68"/>
<path d="M36.4906 21.2266L31.6324 12.9204L19.8919 16.4753L13.5924 24.1057C14.2963 24.5825 14.9112 25.1788 15.4095 25.8676C15.4095 25.8676 16.0991 21.9507 23.6847 21.8542C28.6705 21.7887 30.3221 18.6648 30.9738 16.1374C31.1117 19.0854 32.5461 22.1266 34.277 23.5368C34.747 23.9633 35.3227 24.2561 35.9443 24.3847C36.5658 24.5132 37.2105 24.4729 37.8112 24.2678L36.4906 21.2266Z" fill="#420E2F"/>
</g>
<defs>
<clipPath id="clip0_30_534">
<rect width="52" height="52" rx="26" fill="white"/>
</clipPath>
</defs>
</svg>
