<svg width="14" height="15" viewBox="0 0 14 15" fill="none" xmlns="http://www.w3.org/2000/svg">
<path d="M7.48175 2.17377L7.48245 2.17518L8.65459 4.51946C8.80201 4.81875 9.04187 5.06449 9.27964 5.23993C9.5187 5.41633 9.82362 5.57184 10.15 5.62623L10.1504 5.62629L12.2766 5.97956C12.2768 5.97958 12.2769 5.9796 12.277 5.97962C12.8273 6.07143 12.9096 6.27065 12.9134 6.28261C12.9167 6.29288 12.9676 6.50079 12.5714 6.89429L12.5696 6.8961L10.9163 8.54943C10.6639 8.80183 10.5024 9.13044 10.4147 9.43669C10.327 9.74329 10.2908 10.1056 10.3681 10.4505L10.3681 10.4505L10.3692 10.4554L10.8424 12.5015C10.8425 12.5017 10.8425 12.5018 10.8425 12.5019C10.8425 12.502 10.8425 12.502 10.8426 12.5021C10.921 12.8425 10.921 13.0765 10.8948 13.218C10.879 13.3036 10.8575 13.3398 10.8485 13.3516C10.8345 13.3567 10.7928 13.3664 10.7047 13.3553C10.5607 13.3371 10.3367 13.2657 10.0353 13.0877C10.0353 13.0877 10.0353 13.0877 10.0353 13.0877C10.0351 13.0876 10.0349 13.0875 10.0347 13.0873L8.04229 11.9079C8.04219 11.9078 8.04209 11.9078 8.042 11.9077C7.71811 11.7159 7.33897 11.6431 7.00244 11.6431C6.66512 11.6431 6.28706 11.7162 5.96277 11.9048L5.96276 11.9048L5.95788 11.9077L3.96455 13.0877L3.96384 13.0881C3.66471 13.2656 3.44217 13.3363 3.29927 13.3542C3.20858 13.3655 3.1669 13.3545 3.15395 13.3494C3.14516 13.3387 3.12232 13.3026 3.10571 13.2137C3.07938 13.0729 3.07908 12.8402 3.1573 12.5022L3.15732 12.5021L3.63065 10.4554L3.63067 10.4554L3.63178 10.4505C3.70908 10.1056 3.67291 9.74329 3.58515 9.43669C3.49748 9.13044 3.336 8.80183 3.0836 8.54944L2.63363 8.99941L3.0836 8.54943L1.43027 6.8961C1.03661 6.50244 1.08555 6.2933 1.0894 6.28124C1.09302 6.2699 1.17331 6.0713 1.72286 5.97962C1.72299 5.9796 1.72311 5.97958 1.72324 5.97956L3.84953 5.62629L3.84953 5.6263L3.85217 5.62585C4.17594 5.57087 4.47894 5.41452 4.71581 5.23889C4.95177 5.06393 5.19129 4.81854 5.3386 4.5195L6.51006 2.17658C6.51016 2.17638 6.51025 2.17619 6.51035 2.176C6.77602 1.64774 6.99604 1.63477 6.99911 1.63477C7.00082 1.63477 7.21929 1.64608 7.48175 2.17377ZM10.8443 13.3562C10.8442 13.3561 10.845 13.3552 10.8468 13.3537C10.8453 13.3555 10.8443 13.3563 10.8443 13.3562ZM10.8511 13.3505C10.853 13.3493 10.8541 13.3489 10.8541 13.349C10.8542 13.349 10.8533 13.3496 10.8511 13.3505ZM3.14931 13.3471C3.14936 13.347 3.15037 13.3475 3.15216 13.3487C3.15014 13.3478 3.14925 13.3472 3.14931 13.3471ZM3.15519 13.3509C3.1569 13.3523 3.15765 13.3531 3.15759 13.3532C3.15754 13.3532 3.15668 13.3526 3.15519 13.3509Z" fill="#3A8F4D" stroke="#3A8F4D" stroke-width="1.5" stroke-linecap="round" stroke-linejoin="round"/>
</svg>
